# xmcd
#
# Track frame offsets:
#	150
#	16072
#	37294
#	54176
#	68846
#	89535
#	113829
#	127845
#	148677
#	164861
#	180848
#
# Disc length: 2652 seconds
#
# Revision: 3
# Processed by: cddbd v1.5.1PL0 Copyright (c) Steve Scherf et al.
# Submitted via: audiograbber 1.83.01
#
DISCID=910a5a0b
DTITLE=The Mavericks - The Mavericks
DYEAR=2003
DGENRE=Country
TTITLE0=I Want To Know
TTITLE1=In My Dreams
TTITLE2=Shine Your Light 
TTITLE3=I'm Wondering
TTITLE4=By The Time
TTITLE5=Would You Believe
TTITLE6=Too Lonely
TTITLE7=Time Goes By Featuring Willie Nelson
TTITLE8=San Jose
TTITLE9=Because Of You
TTITLE10=Air That I Breathe
EXTD=YEAR: 2003 ID3G: 2
EXTT0=
EXTT1=
EXTT2=
EXTT3=
EXTT4=
EXTT5=
EXTT6=
EXTT7=
EXTT8=
EXTT9=
EXTT10=
PLAYORDER=
